<svg width="143" height="58" viewBox="0 0 143 58" fill="none" xmlns="http://www.w3.org/2000/svg">
<path d="M130.897 45.6866H134.009C133.652 48.1803 131.685 49.8604 129.096 49.8604C126.143 49.8604 124.018 47.7967 124.018 44.9524C124.018 42.1082 126.137 40.0841 129.11 40.0841C131.692 40.0841 133.632 41.7113 133.983 44.1587H130.897C130.632 43.4112 129.931 42.9218 129.103 42.9218C127.991 42.9218 127.196 43.7684 127.196 44.9656C127.196 46.1629 127.997 47.0294 129.103 47.0294C129.951 47.0294 130.639 46.5068 130.904 45.6866H130.897ZM139.61 43.7949C138.737 43.6361 138.035 43.5171 138.035 42.9945C138.035 42.5712 138.379 42.3198 138.882 42.3198C139.458 42.3198 139.849 42.591 139.849 43.1797H142.815C142.782 41.3144 141.259 40.0709 138.922 40.0709C136.585 40.0709 134.996 41.2615 134.996 43.1004C134.996 45.3294 136.889 45.7594 138.313 45.9909C139.193 46.1364 139.895 46.2886 139.895 46.8177C139.895 47.294 139.458 47.5321 138.995 47.5321C138.392 47.5321 137.929 47.2212 137.929 46.5531H134.877C134.903 48.5441 136.432 49.867 138.935 49.867C141.438 49.867 143 48.6102 143 46.692C143 44.3637 141.067 44.0595 139.617 43.8015L139.61 43.7949ZM60.2585 31.8557C60.2585 30.2417 61.2186 29.2496 62.3243 28.5087C61.3907 27.1792 61.1987 26.4847 61.1987 25.7902C61.1987 23.8521 62.801 22.7872 64.8137 22.7872C66.8265 22.7872 68.4023 23.872 68.4023 25.7836C68.4023 27.4107 67.1774 28.3368 65.8996 29.1107C66.3101 29.6134 66.7934 30.169 67.3363 30.7974C67.5349 30.374 67.6607 29.9044 67.7071 29.4083H70.2892C70.2297 30.7312 69.8192 31.9086 69.1438 32.8677C69.7463 33.5556 70.4084 34.3031 71.1169 35.1166H67.9918C67.7932 34.8984 67.6011 34.6933 67.4158 34.4883C66.4822 35.0571 65.3633 35.3812 64.145 35.3812C61.8542 35.3812 60.2651 33.9525 60.2651 31.8623L60.2585 31.8557ZM63.9199 25.8762C63.9199 26.2201 64.1119 26.6699 64.4959 27.2586C65.1977 26.8419 65.7009 26.4252 65.7009 25.8762C65.7009 25.3272 65.3169 25.0163 64.8137 25.0163C64.3105 25.0163 63.9199 25.3338 63.9199 25.8762ZM63.1188 31.7631C63.1188 32.4245 63.622 32.8677 64.3834 32.8677C64.8336 32.8677 65.264 32.7553 65.6678 32.5568C64.9528 31.7499 64.3436 31.0553 63.8338 30.4402C63.3968 30.8172 63.1188 31.2405 63.1188 31.7631ZM122.528 36.5388H119.41V39.2243H122.528V36.5388ZM85.9345 17.3831C85.9345 19.427 87.1726 20.6705 89.2053 20.6705H91.3836V17.8991H90.1653C89.4966 17.8991 89.0993 17.5022 89.0993 16.8407V13.9171H91.3306V11.4764H89.0199V8.79089H88.371L84.2528 13.1763V13.9171H85.9345V17.3831ZM65.6877 20.6705H60.861V8.75781H65.6877C69.2961 8.75781 71.8452 11.225 71.8452 14.7043C71.8452 18.1835 69.2895 20.6705 65.6877 20.6705ZM65.5354 17.6676C67.3032 17.6676 68.4751 16.4637 68.4751 14.7043C68.4751 12.9448 67.2966 11.7608 65.5354 11.7608H64.1649V17.6609H65.5354V17.6676ZM115.623 45.7462V42.8225H117.854V40.3818H115.543V37.6963H114.895L110.776 42.0817V42.8225H112.458V46.2886C112.458 48.3324 113.696 49.5693 115.729 49.5693H117.907V46.7979H116.689C116.02 46.7979 115.623 46.401 115.623 45.7462ZM67.6011 37.6632L72.3881 49.576H68.7731L68.1176 47.6445H63.8934L63.2313 49.576H59.709L64.39 37.6632H67.6011ZM67.3098 45.0715L65.9923 41.3806L64.6879 45.0715H67.3098ZM91.7941 40.3752H94.1577V49.5627H91.708L91.4365 48.9145C90.6817 49.523 89.7283 49.8736 88.6623 49.8736C85.8484 49.8736 83.8423 47.8231 83.8423 44.9656C83.8423 42.1082 85.8551 40.0908 88.6623 40.0908C89.7482 40.0908 90.7148 40.4546 91.4696 41.0763L91.7941 40.3686V40.3752ZM91.1452 44.9789C91.1452 43.7883 90.2712 42.8887 89.0861 42.8887C87.901 42.8887 87.027 43.7817 87.027 44.9789C87.027 46.1761 87.901 47.0757 89.0861 47.0757C90.2712 47.0757 91.1452 46.1827 91.1452 44.9789ZM96.1573 49.576H99.3287V37.0679H96.1573V49.576ZM107.532 40.3884L105.711 45.4485L103.758 40.3884H100.315L104.116 48.8219C103.685 49.9662 103.321 50.2837 102.109 50.2837H101.236V53.0023H102.321C104.698 53.0023 105.837 51.9836 107.075 49.1725L110.929 40.395H107.525L107.532 40.3884ZM102.58 20.6705H100.13L99.8584 20.0223C99.1036 20.6309 98.1502 20.9814 97.0842 20.9814C94.2703 20.9814 92.2641 18.9309 92.2641 16.0735C92.2641 13.216 94.2769 11.2052 97.0842 11.2052C98.17 11.2052 99.1367 11.569 99.8915 12.1907L100.216 11.483H102.58V20.6705ZM99.567 16.0801C99.567 14.8895 98.6931 13.9899 97.5079 13.9899C96.3228 13.9899 95.4488 14.8829 95.4488 16.0801C95.4488 17.2773 96.3228 18.1769 97.5079 18.1769C98.6931 18.1769 99.567 17.2839 99.567 16.0801ZM78.9428 40.1172C77.751 40.1172 76.7314 40.5736 76.0495 41.3343L75.6125 40.3884H73.3878V49.576H76.5593V44.668C76.5593 43.4972 77.1287 42.8093 78.1152 42.8093C78.9097 42.8093 79.3136 43.3385 79.3136 44.41V49.576H82.485V43.9735C82.485 41.6319 81.0814 40.1172 78.9428 40.1172ZM119.397 49.576H122.568V40.3884H119.397V49.576ZM80.8364 11.4764H83.2001V20.6639H80.7503L80.4789 20.0157C79.7241 20.6242 78.7707 20.9748 77.7047 20.9748C74.8908 20.9748 72.8847 18.9243 72.8847 16.0668C72.8847 13.2094 74.8974 11.1986 77.7047 11.1986C78.7905 11.1986 79.7572 11.5624 80.512 12.1841L80.8364 11.4764ZM80.1875 16.0801C80.1875 14.8895 79.3136 13.9899 78.1284 13.9899C76.9433 13.9899 76.0693 14.8829 76.0693 16.0801C76.0693 17.2773 76.9433 18.1769 78.1284 18.1769C79.3136 18.1769 80.1875 17.2839 80.1875 16.0801Z" fill="#343A40"/>
<path d="M56.8143 28.1646C51.6831 23.0383 48.8626 16.2254 48.8626 8.9825V8.37397H48.2534C40.9969 8.37397 34.1773 5.54957 29.0527 0.429943L28.6223 0L28.192 0.429943C23.0607 5.55619 16.2412 8.37397 8.99124 8.37397H8.38211V8.9825C8.38211 16.232 5.55497 23.0449 0.430361 28.1646L0 28.5945L0.430361 29.0245C5.56159 34.1507 8.38211 40.9636 8.38211 48.2065V48.8151H8.99124C16.2478 48.8151 23.0674 51.6395 28.192 56.7591L28.6223 57.189L29.0527 56.7591C34.1839 51.6328 41.0035 48.8151 48.2534 48.8151H48.8626V48.2065C48.8626 40.957 51.6897 34.1441 56.8143 29.0245L57.2447 28.5945L56.8143 28.1646ZM27.1459 29.2031L23.213 33.1321C23.1071 32.4243 22.9085 31.7298 22.637 31.0683C22.3589 30.4003 22.008 29.7785 21.5843 29.2031H27.1525H27.1459ZM21.5777 27.986C22.0014 27.4105 22.3523 26.7821 22.6304 26.1207C22.9085 25.4526 23.1005 24.7647 23.2064 24.057L27.1392 27.986H21.571H21.5777ZM28.0066 30.0629V35.6257C27.4306 35.2024 26.8016 34.8518 26.1395 34.574C25.4708 34.2962 24.7822 34.1044 24.0737 33.9986L28.0066 30.0696V30.0629ZM24.0737 23.1905C24.7822 23.0846 25.4774 22.8862 26.1395 22.615C26.8082 22.3372 27.4306 21.9866 28.0066 21.5633V27.1261L24.0737 23.1971V23.1905ZM22.9548 22.0726L19.3265 18.4479L18.1679 17.2903L17.4594 16.5826C19.3133 16.4106 21.134 15.974 22.8687 15.2597C24.7557 14.4792 26.4838 13.4076 28.0066 12.0715V19.9824C26.6294 21.2723 24.8418 22.0131 22.9548 22.0726ZM17.3071 18.1568L18.4658 19.3144L22.0941 22.9391C22.0345 24.8242 21.2929 26.6102 20.0019 27.986H12.1229C13.3875 26.5043 14.4204 24.8441 15.1686 23.0317C15.9167 21.2193 16.367 19.321 16.5259 17.3763L17.3138 18.1634L17.3071 18.1568ZM13.2353 29.2031H20.0019C21.2929 30.5789 22.0345 32.3648 22.0941 34.2499L18.4658 37.8747L17.3071 39.0322L16.5193 39.8193C16.367 37.8747 15.9167 35.9697 15.162 34.1639C14.4138 32.3516 13.3809 30.6913 12.1163 29.2097H13.2286L13.2353 29.2031ZM18.1745 39.8921L19.3332 38.7346L22.9614 35.1098C24.8484 35.1693 26.6361 35.9102 28.0132 37.2V45.0713C26.5301 43.8079 24.8683 42.776 23.0541 42.0286C21.24 41.2811 19.3332 40.8314 17.3932 40.6792L18.1811 39.8921H18.1745ZM19.8496 7.42809C22.8621 6.17795 25.6098 4.44495 28.0132 2.26878V10.193L27.808 10.398C24.6763 13.4539 20.5514 15.1869 16.1816 15.2994L15.3076 14.4262L15.2017 14.3204L14.0298 13.1496L13.9437 13.0637L10.4346 9.55796C13.6789 9.39922 16.8437 8.68485 19.8562 7.43471L19.8496 7.42809ZM7.4287 19.8303C8.67343 16.8207 9.3885 13.6523 9.55402 10.4179L13.1492 14.0095L14.3211 15.1803L15.2083 16.0666V16.1063C15.1553 20.5645 13.4074 24.7713 10.2956 27.9595L10.2691 27.986H2.27098C4.44927 25.5783 6.18396 22.8399 7.43532 19.8303H7.4287ZM7.4287 37.3654C6.18396 34.3558 4.44265 31.6107 2.26436 29.2097H10.2691L10.2956 29.2361C13.414 32.4243 15.1553 36.6311 15.2083 41.0893V41.129L14.3211 42.0154L13.1492 43.1861L9.55402 46.7778C9.39512 43.5367 8.68005 40.375 7.4287 37.3654ZM28.0066 49.8403V54.9203C25.5966 52.7441 22.8555 51.0111 19.843 49.7609C16.8304 48.5174 13.6656 47.803 10.4214 47.6377L14.0165 44.046L15.1884 42.8752L16.0756 41.9889H16.1154C20.5779 42.0418 24.7888 43.788 27.9801 46.8969L28.0066 46.9233V49.8337V49.8403ZM29.2248 7.36195V2.27539C31.6349 4.45156 34.3759 6.18457 37.3885 7.43471C40.401 8.67823 43.5658 9.3926 46.8101 9.55796L43.2149 13.1496L42.043 14.3204L41.1558 15.2068H41.1161C36.6535 15.1538 32.4426 13.4076 29.2513 10.2988L29.2248 10.2723V7.36195ZM30.0856 29.2097H35.6538C35.23 29.7851 34.8791 30.4135 34.601 31.075C34.323 31.743 34.131 32.4309 34.025 33.1387L30.0922 29.2097H30.0856ZM33.1577 34.0052C32.4492 34.111 31.754 34.3095 31.0919 34.5807C30.4232 34.8585 29.8009 35.209 29.2248 35.6324V30.0696L33.1577 33.9986V34.0052ZM29.2248 27.1327V21.5699C29.8009 21.9932 30.4298 22.3438 31.0919 22.6216C31.7607 22.8994 32.4492 23.0912 33.1577 23.1971L29.2248 27.1261V27.1327ZM30.0856 27.9926L34.0184 24.0636C34.1243 24.7713 34.323 25.4659 34.5944 26.1273C34.8725 26.7888 35.2234 27.4171 35.6472 27.9926H30.0789H30.0856ZM34.2766 22.0792C32.3897 22.0197 30.602 21.2789 29.2248 19.989V12.1178C30.7079 13.3811 32.3698 14.413 34.1839 15.1605C35.9981 15.9079 37.8983 16.3577 39.8448 16.5164L39.0569 17.3036L37.8983 18.4611L34.27 22.0858L34.2766 22.0792ZM29.2248 43.9666V37.2066C30.602 35.9168 32.3897 35.176 34.2766 35.1164L37.9049 38.7412L39.0636 39.8987L39.8515 40.6858C37.9049 40.838 36.0047 41.2878 34.1905 42.0352C32.3764 42.7893 30.7146 43.8145 29.2315 45.0779V43.9666H29.2248ZM39.9243 39.0322L38.7656 37.8747L38.6133 37.7225L35.144 34.2565C35.2035 32.3714 35.9451 30.5855 37.2362 29.2097H45.1085C43.8439 30.6913 42.811 32.3582 42.0628 34.1639C41.3147 35.9763 40.8645 37.8747 40.7122 39.8193L39.9243 39.0322ZM43.9962 27.986H37.2296C35.9385 26.6102 35.1969 24.8242 35.1373 22.9391L38.7656 19.3144L39.9243 18.1568L40.7585 17.3234C40.8976 19.3276 41.361 21.2921 42.1291 23.164C42.8574 24.9235 43.8571 26.5374 45.0688 27.9926H43.9895L43.9962 27.986ZM37.3885 49.7609C34.3759 51.0111 31.6282 52.7441 29.2248 54.9203V46.9233L29.2513 46.8969C32.4426 43.7814 36.6535 42.0418 41.1161 41.9889H41.1558L42.043 42.8752L43.2149 44.046L46.8101 47.6377C43.5658 47.803 40.3944 48.5108 37.3885 49.7609ZM49.7961 37.3654C48.5514 40.375 47.8363 43.5433 47.6708 46.7778L44.0756 43.1861L42.9037 42.0154L42.0165 41.129V41.0893C42.0695 36.6311 43.8174 32.4243 46.9292 29.2361L46.9557 29.2097H54.9604C52.7822 31.6173 51.0475 34.3558 49.7961 37.3654ZM49.8689 27.9926H46.9028C43.8505 24.8176 42.1357 20.6505 42.0827 16.2386V16.0005L42.8971 15.1803L44.069 14.0095L47.6642 10.4179C47.8231 13.659 48.5381 16.8207 49.7895 19.8303C51.0342 22.8399 52.7755 25.5849 54.9538 27.986H49.8689V27.9926Z" fill="url(#paint0_linear_0_263)"/>
<path d="M25.1411 14.3866C25.1411 15.5971 24.1612 16.576 22.9495 16.576C21.7379 16.576 20.758 15.5971 20.758 14.3866C20.758 13.1762 21.7379 12.1972 22.9495 12.1972C24.1612 12.1972 25.1411 13.1762 25.1411 14.3866ZM5.01339 21.4046C3.94742 21.4046 3.08008 22.2711 3.08008 23.3361C3.08008 24.401 3.94742 25.2675 5.01339 25.2675C6.07936 25.2675 6.94671 24.401 6.94671 23.3361C6.94671 22.2711 6.07936 21.4046 5.01339 21.4046ZM37.3766 4.74268C36.3569 4.74268 35.5293 5.56949 35.5293 6.58812C35.5293 7.60676 36.3569 8.43357 37.3766 8.43357C38.3962 8.43357 39.2238 7.60676 39.2238 6.58812C39.2238 5.56949 38.3962 4.74268 37.3766 4.74268ZM40.5149 38.0732C39.098 38.0732 37.9526 39.2175 37.9526 40.633C37.9526 42.0485 39.098 43.1928 40.5149 43.1928C41.9318 43.1928 43.0772 42.0485 43.0772 40.633C43.0772 39.2175 41.9318 38.0732 40.5149 38.0732ZM28.6369 33.8201C27.22 33.8201 26.0746 34.9644 26.0746 36.3799C26.0746 37.7954 27.22 38.9397 28.6369 38.9397C30.0538 38.9397 31.1992 37.7954 31.1992 36.3799C31.1992 34.9644 30.0538 33.8201 28.6369 33.8201ZM9.11838 44.3504C7.34396 44.3504 5.90722 45.7857 5.90722 47.5584C5.90722 49.3311 7.34396 50.7664 9.11838 50.7664C10.8928 50.7664 12.3295 49.3311 12.3295 47.5584C12.3295 45.7857 10.8928 44.3504 9.11838 44.3504ZM14.296 32.1135C13.2234 32.1135 12.356 32.98 12.356 34.0516C12.356 35.1231 13.2234 35.9896 14.296 35.9896C15.3685 35.9896 16.2359 35.1231 16.2359 34.0516C16.2359 32.98 15.3685 32.1135 14.296 32.1135Z" fill="url(#paint1_linear_0_263)"/>
<defs>
<linearGradient id="paint0_linear_0_263" x1="-0.0132419" y1="28.5945" x2="57.2447" y2="28.5945" gradientUnits="userSpaceOnUse">
<stop stop-color="#00C7B1"/>
<stop offset="0.16" stop-color="#03C2B1"/>
<stop offset="0.33" stop-color="#0EB6B2"/>
<stop offset="0.51" stop-color="#1FA0B4"/>
<stop offset="0.68" stop-color="#3883B6"/>
<stop offset="0.86" stop-color="#585DBA"/>
<stop offset="1" stop-color="#753BBD"/>
</linearGradient>
<linearGradient id="paint1_linear_0_263" x1="38.6279" y1="5.17923" x2="11.3167" y2="52.5224" gradientUnits="userSpaceOnUse">
<stop stop-color="#00C7B1"/>
<stop offset="0.16" stop-color="#03C2B1"/>
<stop offset="0.33" stop-color="#0EB6B2"/>
<stop offset="0.51" stop-color="#1FA0B4"/>
<stop offset="0.68" stop-color="#3883B6"/>
<stop offset="0.86" stop-color="#585DBA"/>
<stop offset="1" stop-color="#753BBD"/>
</linearGradient>
</defs>
</svg>
