<svg width="35" height="35" viewBox="0 0 35 35" fill="none" xmlns="http://www.w3.org/2000/svg">
<path d="M17.4971 35.0002C7.81243 34.9765 -0.11158 27.1549 0.00137596 17.2816C0.111049 7.66426 7.93392 -0.1009 17.7 0.00148932C27.3131 0.101909 35.1472 7.92811 34.9981 17.7798C34.853 27.3663 27.0813 34.9739 17.4971 35.0008V35.0002ZM21.0559 25.0317C21.0559 24.882 21.0559 24.7639 21.0559 24.6458C21.0559 22.9839 21.0388 21.3214 21.0644 19.6595C21.0743 19.0294 21.1255 18.3895 21.2555 17.7745C21.4768 16.7296 22.3115 16.1232 23.3787 16.1389C24.3106 16.1527 24.8728 16.6377 25.0061 17.5533C25.0356 17.7581 25.0534 17.9668 25.054 18.1736C25.0671 20.327 25.075 22.4811 25.0849 24.6346C25.0849 24.7619 25.0849 24.8893 25.0849 25.0245H27.9357V24.651C27.9357 22.9668 27.9423 21.2833 27.9331 19.5991C27.9285 18.7689 27.9245 17.9366 27.8694 17.109C27.759 15.4609 26.8849 14.3891 25.3528 14.0321C23.8713 13.6868 22.5578 14.0281 21.4499 15.0914C21.3317 15.2043 21.2181 15.3218 21.0382 15.5016V9.59325H18.2346V25.031H21.0552L21.0559 25.0317ZM7.13863 9.5939V25.0225H9.95925V24.6425C9.95925 23.3738 9.94349 22.1044 9.96451 20.8364C9.98027 19.8978 9.98684 18.9533 10.1018 18.0239C10.241 16.8924 10.9916 16.2354 12.0929 16.1488C13.0215 16.0759 13.8392 16.5406 13.9173 17.5927C13.9305 17.7673 13.9547 17.9412 13.9561 18.1158C13.9705 20.2922 13.981 22.468 13.9928 24.6444C13.9935 24.7705 13.9928 24.8958 13.9928 25.0186H16.8391C16.8391 24.8597 16.8391 24.7304 16.8391 24.6005C16.8391 22.8283 16.845 21.0569 16.8364 19.2848C16.8332 18.5418 16.8299 17.7962 16.7714 17.0565C16.6834 15.9453 16.2769 14.9746 15.2373 14.4292C13.7065 13.6258 12.2059 13.7098 10.7887 14.7291C10.5096 14.9299 10.2679 15.1833 9.96122 15.455V9.59456H7.13994L7.13863 9.5939Z" fill="black"/>
</svg>
