<svg width="36" height="35" viewBox="0 0 36 35" fill="none" xmlns="http://www.w3.org/2000/svg">
<path d="M36 16.4065V18.5942C35.9473 19.0106 35.9044 19.4285 35.8411 19.8435C35.133 24.5299 32.8922 28.3773 29.0552 31.291C25.0973 34.2966 20.5741 35.4562 15.6009 34.8397C11.9728 34.3897 8.77711 32.9472 6.04969 30.5739C2.95242 27.8786 1.01672 24.5354 0.279844 20.5504C0.160313 19.9031 0.0921094 19.2463 0 18.5942C0 17.8647 0 17.136 0 16.4065C0.0288281 16.1825 0.0597656 15.9585 0.0850781 15.7339C0.501328 12.0269 1.94344 8.7488 4.48664 5.95423C7.28367 2.88156 10.7677 0.970567 14.9344 0.264389C15.5777 0.155482 16.2281 0.086988 16.875 0C17.6252 0 18.3748 0 19.125 0C19.215 0.0191785 19.3043 0.049316 19.3957 0.0561655C22.1984 0.259594 24.8224 1.0418 27.213 2.47265C31.8593 5.25421 34.7217 9.25429 35.7244 14.4845C35.846 15.1195 35.91 15.7654 36.0007 16.4065H36ZM15.2114 26.4382H19.5771V26.0217C19.5771 24.3361 19.575 22.6504 19.5785 20.9648C19.5799 20.2703 19.5785 19.575 19.6059 18.8812C19.6348 18.1223 20.0257 17.5366 20.6402 17.101C21.8946 16.212 23.5645 16.7462 23.9906 18.1908C24.1305 18.6641 24.1784 19.1771 24.1833 19.6723C24.2037 21.8018 24.1917 23.932 24.1917 26.0622V26.4382H28.5574C28.5637 26.3108 28.5729 26.1998 28.5736 26.0889C28.5743 23.7998 28.5799 21.51 28.5694 19.2209C28.5673 18.7209 28.5349 18.2188 28.473 17.7229C28.1623 15.227 26.6259 13.6537 24.1516 13.3715C22.3608 13.1674 20.8427 13.6907 19.7691 15.1804C19.7311 15.2332 19.6854 15.2804 19.5806 15.4037V13.6475H15.2128V26.4389L15.2114 26.4382ZM12.754 26.4402C12.761 26.3293 12.7737 26.23 12.7737 26.13C12.7744 22.0744 12.7716 18.0188 12.7807 13.9633C12.7807 13.6879 12.6949 13.6181 12.4221 13.6208C11.1916 13.6338 9.96117 13.6256 8.73141 13.6277C8.61961 13.6277 8.50852 13.642 8.40164 13.6496V26.4409H12.7547L12.754 26.4402ZM10.6144 7.4522C9.45914 7.45083 8.53945 8.03646 8.2357 8.96661C7.79906 10.3036 8.63227 11.6139 10.0617 11.8379C11.3794 12.0441 12.5262 11.4865 12.9178 10.4495C13.4916 8.92757 12.3595 7.45494 10.6144 7.4522Z" fill="black"/>
</svg>
