<svg width="142" height="32" viewBox="0 0 142 32" fill="none" xmlns="http://www.w3.org/2000/svg">
<path d="M136.864 0C135.087 0 133.48 1.1628 132.944 2.86445L123.75 31.3105H132.436L140.812 5.41694C141.658 2.75101 139.684 0 136.864 0Z" fill="black"/>
<path d="M76.7383 0.624023H49.4951L47.0133 8.30983H66.0497L41.5421 24.9293C39.6525 26.2056 39.2859 28.8431 40.7524 30.5732C42.0215 32.0763 44.1931 32.3883 45.8006 31.2822L70.5338 14.4925L65.1472 31.3389H73.8335L81.589 7.34556C82.6607 4.02733 80.2071 0.624023 76.7383 0.624023Z" fill="#00C7B1"/>
<path d="M9.92714 0.624023L0 31.3389H8.68625L16.1316 8.30983H33.8707L21.8002 16.5061C20.0517 17.6973 19.4594 20.108 20.6157 21.8664C21.8002 23.6814 24.1974 24.1352 25.9459 22.9441L41.0058 12.7341C46.3925 9.07558 43.8261 0.624023 37.3396 0.652384L9.92714 0.624023Z" fill="black"/>
<path d="M119.267 0.652344H91.8549L81.9277 31.3389H90.614L98.0593 8.30979H115.798L100.118 18.9735L109.848 30.6298C111.117 32.133 113.288 32.4449 114.896 31.3389C116.786 30.0626 117.152 27.425 115.686 25.695L111.399 20.5617L122.962 12.7341C128.32 9.07554 125.754 0.652344 119.267 0.652344Z" fill="black"/>
</svg>
