<svg width="350" height="140" viewBox="0 0 350 140" fill="none" xmlns="http://www.w3.org/2000/svg">
<path d="M320.394 111.832H328.01C327.135 117.935 322.323 122.047 315.987 122.047C308.76 122.047 303.558 116.996 303.558 110.035C303.558 103.074 308.743 98.1199 316.019 98.1199C322.339 98.1199 327.087 102.102 327.946 108.092H320.394C319.746 106.263 318.028 105.065 316.003 105.065C313.281 105.065 311.336 107.137 311.336 110.067C311.336 112.997 313.297 115.118 316.003 115.118C318.077 115.118 319.762 113.839 320.411 111.832H320.394ZM341.719 107.202C339.58 106.813 337.863 106.522 337.863 105.243C337.863 104.207 338.705 103.592 339.937 103.592C341.347 103.592 342.303 104.255 342.303 105.696H349.562C349.481 101.131 345.754 98.0876 340.034 98.0876C334.314 98.0876 330.425 101.002 330.425 105.502C330.425 110.958 335.059 112.01 338.543 112.576C340.699 112.933 342.416 113.305 342.416 114.6C342.416 115.766 341.347 116.348 340.212 116.348C338.738 116.348 337.603 115.588 337.603 113.953H330.133C330.198 118.825 333.941 122.063 340.067 122.063C346.192 122.063 350.016 118.987 350.016 114.292C350.016 108.594 345.284 107.849 341.736 107.218L341.719 107.202ZM147.509 77.9812C147.509 74.0311 149.859 71.6028 152.565 69.7897C150.28 66.5358 149.81 64.8359 149.81 63.1361C149.81 58.3928 153.732 55.7865 158.658 55.7865C163.584 55.7865 167.441 58.4414 167.441 63.1199C167.441 67.1024 164.443 69.3688 161.315 71.2629C162.32 72.4932 163.503 73.8531 164.832 75.391C165.318 74.3549 165.626 73.2055 165.739 71.9914H172.059C171.913 75.2291 170.908 78.1107 169.255 80.4581C170.73 82.1417 172.35 83.971 174.084 85.9622H166.436C165.95 85.428 165.48 84.9261 165.026 84.4243C162.741 85.8165 160.003 86.6098 157.021 86.6098C151.414 86.6098 147.525 83.113 147.525 77.9974L147.509 77.9812ZM156.47 63.3466C156.47 64.1884 156.94 65.2892 157.88 66.73C159.598 65.7101 160.829 64.6903 160.829 63.3466C160.829 62.0029 159.889 61.2421 158.658 61.2421C157.426 61.2421 156.47 62.0191 156.47 63.3466ZM154.509 77.7545C154.509 79.3734 155.741 80.4581 157.604 80.4581C158.706 80.4581 159.76 80.1828 160.748 79.6972C158.998 77.7222 157.507 76.0224 156.259 74.5168C155.19 75.4396 154.509 76.4756 154.509 77.7545ZM299.912 89.4428H292.28V96.0154H299.912V89.4428ZM210.35 42.5603C210.35 47.5626 213.38 50.6061 218.355 50.6061H223.686V43.823H220.705C219.068 43.823 218.096 42.8517 218.096 41.2328V34.0774H223.557V28.1038H217.901V21.5311H216.313L206.234 32.2643V34.0774H210.35V42.5603ZM160.797 50.6061H148.984V21.4502H160.797C169.628 21.4502 175.867 27.4886 175.867 36.0038C175.867 44.5191 169.612 50.6061 160.797 50.6061ZM160.424 43.2564C164.751 43.2564 167.619 40.31 167.619 36.0038C167.619 31.6977 164.734 28.7999 160.424 28.7999H157.07V43.2402H160.424V43.2564ZM283.011 111.977V104.822H288.472V98.8484H282.816V92.2758H281.228L271.149 103.009V104.822H275.265V113.305C275.265 118.307 278.295 121.335 283.27 121.335H288.601V114.551H285.62C283.983 114.551 283.011 113.58 283.011 111.977ZM165.48 92.1949L177.196 121.351H168.348L166.744 116.624H156.405L154.785 121.351H146.164L157.621 92.1949H165.48ZM164.767 110.326L161.542 101.293L158.35 110.326H164.767ZM224.691 98.8323H230.476V121.318H224.48L223.816 119.732C221.968 121.221 219.635 122.079 217.026 122.079C210.139 122.079 205.229 117.061 205.229 110.067C205.229 103.074 210.155 98.1361 217.026 98.1361C219.684 98.1361 222.05 99.0265 223.897 100.548L224.691 98.8161V98.8323ZM223.103 110.1C223.103 107.186 220.964 104.984 218.063 104.984C215.163 104.984 213.024 107.169 213.024 110.1C213.024 113.03 215.163 115.231 218.063 115.231C220.964 115.231 223.103 113.046 223.103 110.1ZM235.37 121.351H243.132V90.7379H235.37V121.351ZM263.209 98.8646L258.753 111.249L253.972 98.8646H245.546L254.847 119.505C253.794 122.306 252.903 123.083 249.937 123.083H247.798V129.737H250.456C256.273 129.737 259.061 127.243 262.091 120.363L271.522 98.8808H263.193L263.209 98.8646ZM251.088 50.6061H245.092L244.428 49.0196C242.581 50.5089 240.247 51.3669 237.638 51.3669C230.751 51.3669 225.841 46.3484 225.841 39.3549C225.841 32.3614 230.768 27.44 237.638 27.44C240.296 27.44 242.662 28.3304 244.509 29.8521L245.303 28.1199H251.088V50.6061ZM243.715 39.3711C243.715 36.4571 241.576 34.2555 238.675 34.2555C235.775 34.2555 233.636 36.4409 233.636 39.3711C233.636 42.3013 235.775 44.5029 238.675 44.5029C241.576 44.5029 243.715 42.3174 243.715 39.3711ZM193.238 98.2009C190.321 98.2009 187.826 99.3179 186.157 101.18L185.087 98.8646H179.642V121.351H187.404V109.339C187.404 106.473 188.798 104.79 191.212 104.79C193.157 104.79 194.145 106.085 194.145 108.707V121.351H201.907V107.639C201.907 101.908 198.472 98.2009 193.238 98.2009ZM292.247 121.351H300.009V98.8646H292.247V121.351ZM197.872 28.1038H203.657V50.5899H197.662L196.997 49.0034C195.15 50.4928 192.817 51.3507 190.208 51.3507C183.321 51.3507 178.411 46.3322 178.411 39.3387C178.411 32.3452 183.337 27.4238 190.208 27.4238C192.865 27.4238 195.231 28.3142 197.078 29.8359L197.872 28.1038ZM196.284 39.3711C196.284 36.4571 194.145 34.2555 191.245 34.2555C188.344 34.2555 186.205 36.4409 186.205 39.3711C186.205 42.3013 188.344 44.5029 191.245 44.5029C194.145 44.5029 196.284 42.3174 196.284 39.3711Z" fill="#0D0E11"/>
<path d="M139.082 68.9477C126.523 56.4014 119.62 39.727 119.62 22.0004V20.511H118.129C100.369 20.511 83.6786 13.5984 71.1364 1.06838L70.0831 0.0161133L69.0298 1.06838C56.4714 13.6146 39.7808 20.511 22.0369 20.511H20.5461V22.0004C20.5461 39.7432 13.6268 56.4176 1.08454 68.9477L0.03125 69.9999L1.08454 71.0522C13.643 83.5984 20.5461 100.273 20.5461 117.999V119.489H22.0369C39.797 119.489 56.4876 126.401 69.0298 138.931L70.0831 139.984L71.1364 138.931C83.6949 126.385 100.385 119.489 118.129 119.489H119.62V117.999C119.62 100.257 126.539 83.5823 139.082 71.0522L140.135 69.9999L139.082 68.9477ZM66.4695 71.4893L56.8441 81.1054C56.5848 79.3732 56.0987 77.6734 55.4343 76.0545C54.7537 74.4194 53.8949 72.8977 52.8578 71.4893H66.4857H66.4695ZM52.8416 68.5106C53.8787 67.1021 54.7375 65.5642 55.4181 63.9454C56.0987 62.3103 56.5686 60.6267 56.8279 58.8945L66.4533 68.5106H52.8254H52.8416ZM68.5761 73.5938V87.2085C67.1663 86.1725 65.6269 85.3145 64.0064 84.6345C62.3698 83.9546 60.6845 83.4851 58.9506 83.2261L68.5761 73.61V73.5938ZM58.9506 56.7738C60.6845 56.5147 62.386 56.0291 64.0064 55.3653C65.6431 54.6854 67.1663 53.8274 68.5761 52.7913V66.406L58.9506 56.7899V56.7738ZM56.2121 54.0379L47.3321 45.1664L44.4963 42.3334L42.7624 40.6012C47.2996 40.1803 51.7559 39.1119 56.0014 37.3635C60.6197 35.4532 64.8491 32.8306 68.5761 29.5605V48.9222C65.2056 52.079 60.8304 53.8922 56.2121 54.0379ZM42.3897 44.4541L45.2255 47.2872L54.1055 56.1586C53.9597 60.7724 52.1448 65.1433 48.9849 68.5106H29.7016C32.7967 64.8843 35.3246 60.8209 37.1557 56.3852C38.9868 51.9495 40.0887 47.3033 40.4776 42.5439L42.4059 44.4703L42.3897 44.4541ZM32.424 71.4893H48.9849C52.1448 74.8565 53.9597 79.2275 54.1055 83.8413L45.2255 92.7127L42.3897 95.5457L40.4614 97.4722C40.0887 92.7127 38.9868 88.0503 37.1395 83.6308C35.3083 79.1951 32.7805 75.1318 29.6854 71.5055H32.4077L32.424 71.4893ZM44.5125 97.6503L47.3483 94.8172L56.2283 85.9458C60.8466 86.0915 65.2218 87.9046 68.5923 91.0614V110.326C64.9625 107.234 60.8952 104.709 56.4552 102.879C52.0151 101.05 47.3483 99.9491 42.6004 99.5767L44.5287 97.6503H44.5125ZM48.6122 18.196C55.9852 15.1364 62.7101 10.8949 68.5923 5.56884V24.9629L68.09 25.4648C60.4253 32.944 50.3299 37.1854 39.6349 37.4606L37.4959 35.3237L37.2367 35.0647L34.3685 32.1993L34.1578 31.9888L25.5695 23.4088C33.5097 23.0203 41.2554 21.2719 48.6284 18.2122L48.6122 18.196ZM18.2126 48.5499C21.2591 41.184 23.0092 33.4296 23.4143 25.5133L32.2133 34.3038L35.0815 37.1692L37.2529 39.3385V39.4356C37.1232 50.3468 32.8453 60.6428 25.2292 68.4458L25.1644 68.5106H5.58938C10.9206 62.6179 15.1662 55.9157 18.2289 48.5499H18.2126ZM18.2126 91.4662C15.1662 84.1003 10.9044 77.382 5.57317 71.5055H25.1644L25.2292 71.5702C32.8615 79.3732 37.1232 89.6692 37.2529 100.58V100.678L35.0815 102.847L32.2133 105.712L23.4143 114.503C23.0254 106.57 21.2753 98.832 18.2126 91.4662ZM68.5761 121.998V134.431C62.6777 129.105 55.969 124.863 48.596 121.804C41.223 118.76 33.4772 117.012 25.5371 116.607L34.3361 107.817L37.2043 104.951L39.3757 102.782H39.4729C50.3947 102.912 60.7007 107.185 68.5113 114.794L68.5761 114.859V121.982V121.998ZM71.5577 18.0342V5.58503C77.4561 10.9111 84.1648 15.1526 91.5378 18.2122C98.9108 21.2557 106.657 23.0041 114.597 23.4088L105.798 32.1993L102.93 35.0647L100.758 37.234H100.661C89.7391 37.1045 79.4331 32.8306 71.6225 25.2219L71.5577 25.1572V18.0342ZM73.6643 71.5055H87.2922C86.2551 72.9139 85.3963 74.4518 84.7157 76.0707C84.0351 77.7058 83.5652 79.3894 83.3059 81.1216L73.6805 71.5055H73.6643ZM81.1832 83.2423C79.4493 83.5013 77.7478 83.987 76.1274 84.6507C74.4907 85.3306 72.9675 86.1886 71.5577 87.2247V73.61L81.1832 83.2261V83.2423ZM71.5577 66.4222V52.8075C72.9675 53.8436 74.5069 54.7016 76.1274 55.3815C77.764 56.0614 79.4493 56.5309 81.1832 56.7899L71.5577 66.406V66.4222ZM73.6643 68.5268L83.2897 58.9107C83.549 60.6429 84.0351 62.3427 84.6995 63.9615C85.3801 65.5804 86.239 67.1183 87.276 68.5268H73.6481H73.6643ZM83.9217 54.054C79.3034 53.9083 74.9282 52.0952 71.5577 48.9384V29.6738C75.1875 32.7659 79.2548 35.2913 83.6949 37.1206C88.1349 38.95 92.7856 40.0508 97.5497 40.4393L95.6213 42.3658L92.7855 45.1988L83.9055 54.0702L83.9217 54.054ZM71.5577 107.622V91.0776C74.9282 87.9208 79.3034 86.1077 83.9217 85.962L92.8018 94.8334L95.6375 97.6664L97.5659 99.5929C92.8018 99.9652 88.1511 101.066 83.7111 102.895C79.271 104.741 75.2037 107.25 71.5739 110.342V107.622H71.5577ZM97.7441 95.5457L94.9083 92.7127L94.5356 92.3404L86.0445 83.8575C86.1903 79.2437 88.0052 74.8727 91.1651 71.5055H110.432C107.337 75.1318 104.809 79.2113 102.978 83.6308C101.147 88.0665 100.045 92.7127 99.6724 97.4722L97.7441 95.5457ZM107.71 68.5106H91.1489C87.989 65.1433 86.1741 60.7724 86.0283 56.1586L94.9083 47.2872L97.7441 44.4541L99.7859 42.4144C100.126 47.3195 101.26 52.1276 103.14 56.709C104.923 61.0152 107.37 64.9652 110.335 68.5268H107.694L107.71 68.5106ZM91.5378 121.804C84.1648 124.863 77.4399 129.105 71.5577 134.431V114.859L71.6225 114.794C79.4331 107.169 89.7391 102.912 100.661 102.782H100.758L102.93 104.951L105.798 107.817L114.597 116.607C106.657 117.012 98.8946 118.744 91.5378 121.804ZM121.905 91.4662C118.859 98.832 117.108 106.586 116.703 114.503L107.904 105.712L105.036 102.847L102.865 100.678V100.58C102.994 89.6692 107.272 79.3732 114.888 71.5702L114.953 71.5055H134.544C129.213 77.3982 124.968 84.1003 121.905 91.4662ZM122.083 68.5268H114.824C107.353 60.7562 103.156 50.5573 103.027 39.7594V39.1766L105.02 37.1692L107.888 34.3038L116.687 25.5133C117.076 33.4458 118.826 41.184 121.889 48.5499C124.935 55.9157 129.197 62.6341 134.528 68.5106H122.083V68.5268Z" fill="url(#paint0_linear_0_142)"/>
<path d="M61.5598 35.2267C61.5598 38.1892 59.1615 40.5851 56.1961 40.5851C53.2307 40.5851 50.8324 38.1892 50.8324 35.2267C50.8324 32.2641 53.2307 29.8682 56.1961 29.8682C59.1615 29.8682 61.5598 32.2641 61.5598 35.2267ZM12.2982 52.4029C9.68931 52.4029 7.56653 54.5236 7.56653 57.13C7.56653 59.7364 9.68931 61.8571 12.2982 61.8571C14.9071 61.8571 17.0299 59.7364 17.0299 57.13C17.0299 54.5236 14.9071 52.4029 12.2982 52.4029ZM91.5056 11.6235C89.0101 11.6235 86.9846 13.6471 86.9846 16.1402C86.9846 18.6332 89.0101 20.6568 91.5056 20.6568C94.0011 20.6568 96.0266 18.6332 96.0266 16.1402C96.0266 13.6471 94.0011 11.6235 91.5056 11.6235ZM99.1865 93.1985C95.7188 93.1985 92.9154 95.9991 92.9154 99.4635C92.9154 102.928 95.7188 105.729 99.1865 105.729C102.654 105.729 105.458 102.928 105.458 99.4635C105.458 95.9991 102.654 93.1985 99.1865 93.1985ZM70.1157 82.7891C66.648 82.7891 63.8446 85.5898 63.8446 89.0541C63.8446 92.5185 66.648 95.3192 70.1157 95.3192C73.5835 95.3192 76.3868 92.5185 76.3868 89.0541C76.3868 85.5898 73.5835 82.7891 70.1157 82.7891ZM22.345 108.562C18.0022 108.562 14.4858 112.075 14.4858 116.413C14.4858 120.752 18.0022 124.265 22.345 124.265C26.6878 124.265 30.2041 120.752 30.2041 116.413C30.2041 112.075 26.6878 108.562 22.345 108.562ZM35.0169 78.6124C32.3918 78.6124 30.269 80.7332 30.269 83.3557C30.269 85.9783 32.3918 88.099 35.0169 88.099C37.642 88.099 39.7648 85.9783 39.7648 83.3557C39.7648 80.7332 37.642 78.6124 35.0169 78.6124Z" fill="url(#paint1_linear_0_142)"/>
<defs>
<linearGradient id="paint0_linear_0_142" x1="-0.00115891" y1="69.9999" x2="140.135" y2="69.9999" gradientUnits="userSpaceOnUse">
<stop stop-color="#00C7B1"/>
<stop offset="0.16" stop-color="#03C2B1"/>
<stop offset="0.33" stop-color="#0EB6B2"/>
<stop offset="0.51" stop-color="#1FA0B4"/>
<stop offset="0.68" stop-color="#3883B6"/>
<stop offset="0.86" stop-color="#585DBA"/>
<stop offset="1" stop-color="#753BBD"/>
</linearGradient>
<linearGradient id="paint1_linear_0_142" x1="94.5682" y1="12.692" x2="27.7252" y2="128.562" gradientUnits="userSpaceOnUse">
<stop stop-color="#00C7B1"/>
<stop offset="0.16" stop-color="#03C2B1"/>
<stop offset="0.33" stop-color="#0EB6B2"/>
<stop offset="0.51" stop-color="#1FA0B4"/>
<stop offset="0.68" stop-color="#3883B6"/>
<stop offset="0.86" stop-color="#585DBA"/>
<stop offset="1" stop-color="#753BBD"/>
</linearGradient>
</defs>
</svg>
