<svg width="64" height="57" viewBox="0 0 64 57" fill="none" xmlns="http://www.w3.org/2000/svg">
    <path
        d="M13.8953 53.3628L0.770269 30.9351C-0.256756 29.1802 -0.256756 27.0181 0.770269 25.2632L13.8953 2.83623C14.9226 1.08103 16.8209 -0.000258946 18.8753 4.65152e-08H45.1253C47.1796 4.65152e-08 49.0777 1.08129 50.1047 2.83623L63.2298 25.2632C64.257 27.0181 64.257 29.1807 63.2298 30.9356L50.1047 53.3626C49.0774 55.1175 47.1793 56.1983 45.1253 56.1983H18.8753C16.8209 56.1983 14.9223 55.1172 13.8953 53.362V53.3626V53.3628Z"
        fill="url(#paint0_linear_0_1)" />
    <path
        d="M32 16.6577C25.595 16.6577 20.4023 21.7803 20.4023 28.0995C20.4023 34.4186 25.595 39.5407 32 39.5407C38.4049 39.5407 43.597 34.4181 43.597 28.0995C43.597 21.7808 38.4044 16.6577 32 16.6577ZM32 36.7801C27.14 36.7801 23.1999 32.8932 23.1999 28.0987C23.1999 23.3042 27.14 19.4178 32 19.4178C36.8599 19.4178 40.8 23.3048 40.8 28.0992C40.8 32.8937 36.8599 36.7807 32 36.7807"
        fill="white" />
    <path
        d="M26.4941 27.6573V31.2138C27.0276 32.1171 27.78 32.8757 28.6842 33.4212V27.6575H26.4941V27.6573ZM30.8367 24.6592V34.2339C31.2092 34.3015 31.5901 34.3424 31.9816 34.3424C32.3386 34.3424 32.6865 34.3054 33.028 34.2492V24.6592H30.8364H30.8367ZM35.3822 29.1351V33.3585C36.3008 32.7822 37.0547 31.9843 37.5732 31.0402V29.1359L35.3822 29.1353V29.1351ZM40.3445 35.1466L39.1429 36.3328C38.9311 36.5423 38.9311 36.8813 39.1429 37.0908L43.7005 41.5854C43.9129 41.7944 44.2565 41.7944 44.4689 41.5854L45.6705 40.4005C45.8811 40.1907 45.8811 39.8527 45.6705 39.6429L41.1124 35.1463C40.9001 34.9381 40.5569 34.9381 40.3445 35.1463"
        fill="white" />
    <defs>
        <linearGradient id="paint0_linear_0_1" x1="32.1172" y1="-0.21025" x2="32.1172" y2="55.9167"
            gradientUnits="userSpaceOnUse">
            <stop stop-color="#4387FD" />
            <stop offset="1" stop-color="#4683EA" />
        </linearGradient>
    </defs>
</svg>